<mxfile host="65bd71144e">
    <diagram id="1rbuqg1EYstvzoAQ9HEe" name="Page-1">
        <mxGraphModel dx="1388" dy="1366" grid="1" gridSize="10" guides="1" tooltips="1" connect="1" arrows="1" fold="1" page="0" pageScale="1" pageWidth="850" pageHeight="1100" background="none" math="0" shadow="0">
            <root>
                <mxCell id="0"/>
                <mxCell id="1" parent="0"/>
                <mxCell id="node10" value="&lt;p style=&quot;margin:0px;margin-top:4px;text-align:center;&quot;&gt;&lt;b&gt;BasicService&lt;/b&gt;&lt;/p&gt;&lt;hr size=&quot;1&quot;/&gt;&lt;p style=&quot;margin:0 0 0 4px;line-height:1.6;&quot;&gt;- serverFrame: ServerFrame&lt;br/&gt;- processAccountData: ProcessAccountData&lt;br/&gt;- serverSocket: ServerSocket&lt;br/&gt;- validUsers: ConcurrentHashMap&amp;lt;String, User&amp;gt;&lt;/p&gt;&lt;hr size=&quot;1&quot;/&gt;&lt;p style=&quot;margin:0 0 0 4px;line-height:1.6;&quot;&gt;- isLoginSucceed(String, String): boolean&lt;br/&gt;+ printToServerFrame(String): void&lt;br/&gt;- isRegisterSucceed(String, User): boolean&lt;/p&gt;" style="verticalAlign=top;align=left;overflow=fill;fontSize=14;fontFamily=Helvetica;html=1;rounded=0;shadow=0;comic=0;labelBackgroundColor=none;strokeWidth=1;" parent="1" vertex="1">
                    <mxGeometry x="-157" y="1108" width="374" height="236" as="geometry"/>
                </mxCell>
                <mxCell id="node8" value="&lt;p style=&quot;margin:0px;margin-top:4px;text-align:center;&quot;&gt;&lt;b&gt;Message&lt;/b&gt;&lt;/p&gt;&lt;hr size=&quot;1&quot;/&gt;&lt;p style=&quot;margin:0 0 0 4px;line-height:1.6;&quot;&gt;- sender: String&lt;br/&gt;- serialVersionUID: long&lt;br/&gt;- fileBytes: byte[]&lt;br/&gt;- destPath: String&lt;br/&gt;- messType: String&lt;br/&gt;- fileLength: int&lt;br/&gt;- fileName: String&lt;br/&gt;- getter: String&lt;br/&gt;- content: String&lt;br/&gt;- state: String&lt;br/&gt;- srcPath: String&lt;br/&gt;- sendTime: String&lt;/p&gt;&lt;hr size=&quot;1&quot;/&gt;&lt;p style=&quot;margin:0 0 0 4px;line-height:1.6;&quot;&gt;+ setFileLength(int): void&lt;br/&gt;+ getSrcPath(): String&lt;br/&gt;+ getMessType(): String&lt;br/&gt;+ setSender(String): void&lt;br/&gt;+ getContent(): String&lt;br/&gt;+ getDestPath(): String&lt;br/&gt;+ setGetter(String): void&lt;br/&gt;+ getSendTime(): String&lt;br/&gt;+ setFileName(String): void&lt;br/&gt;+ setDestPath(String): void&lt;br/&gt;+ getSender(): String&lt;br/&gt;+ getFileLength(): int&lt;br/&gt;+ getSerialversionuid(): long&lt;br/&gt;+ getFileBytes(): byte[]&lt;br/&gt;+ setMessType(String): void&lt;br/&gt;+ getState(): String&lt;br/&gt;+ setSendTime(String): void&lt;br/&gt;+ setSrcPath(String): void&lt;br/&gt;+ getFileName(): String&lt;br/&gt;+ getGetter(): String&lt;br/&gt;+ setFileBytes(byte[]): void&lt;br/&gt;+ setContent(String): void&lt;br/&gt;+ setState(String): void&lt;/p&gt;" style="verticalAlign=top;align=left;overflow=fill;fontSize=14;fontFamily=Helvetica;html=1;rounded=0;shadow=0;comic=0;labelBackgroundColor=none;strokeWidth=1;" parent="1" vertex="1">
                    <mxGeometry x="131" y="-18" width="241" height="1022" as="geometry"/>
                </mxCell>
                <mxCell id="node0" value="&lt;p style=&quot;margin:0px;margin-top:4px;text-align:center;&quot;&gt;&lt;i&gt;&amp;lt;&amp;lt;interface&amp;gt;&amp;gt;&lt;/i&gt;&lt;br/&gt;&lt;b&gt;MessageType&lt;/b&gt;&lt;/p&gt;&lt;hr size=&quot;1&quot;/&gt;&lt;p style=&quot;margin:0 0 0 4px;line-height:1.6;&quot;&gt;+ DIRECT_FILE_MES: String&lt;br/&gt;+ GROUP_FILE_MES: String&lt;br/&gt;+ GET_ONLINE_FRIEND: String&lt;br/&gt;+ REGIST_REQUEST: String&lt;br/&gt;+ REGIST_FAIL: String&lt;br/&gt;+ LOGIN_FAIL: String&lt;br/&gt;+ CLIENT_EXIT: String&lt;br/&gt;+ REGIST_SUCCEED: String&lt;br/&gt;+ GROUP_MES: String&lt;br/&gt;+ LOGIN_SUCCEED: String&lt;br/&gt;+ COMMON_MES: String&lt;br/&gt;+ RETURN_ONLINE_FRIEND: String&lt;/p&gt;" style="verticalAlign=top;align=left;overflow=fill;fontSize=14;fontFamily=Helvetica;html=1;rounded=0;shadow=0;comic=0;labelBackgroundColor=none;strokeWidth=1;" parent="1" vertex="1">
                    <mxGeometry x="778" y="509" width="279" height="377" as="geometry"/>
                </mxCell>
                <mxCell id="node4" value="&lt;p style=&quot;margin:0px;margin-top:4px;text-align:center;&quot;&gt;&lt;b&gt;MyObjectInputStream&lt;/b&gt;&lt;/p&gt;&lt;hr size=&quot;1&quot;/&gt;&lt;p style=&quot;margin:0 0 0 4px;line-height:1.6;&quot;&gt;# readStreamHeader(): void&lt;/p&gt;" style="verticalAlign=top;align=left;overflow=fill;fontSize=14;fontFamily=Helvetica;html=1;rounded=0;shadow=0;comic=0;labelBackgroundColor=none;strokeWidth=1;" parent="1" vertex="1">
                    <mxGeometry x="646" y="1136" width="252" height="72" as="geometry"/>
                </mxCell>
                <mxCell id="node7" value="&lt;p style=&quot;margin:0px;margin-top:4px;text-align:center;&quot;&gt;&lt;b&gt;MyObjectOutputStream&lt;/b&gt;&lt;/p&gt;&lt;hr size=&quot;1&quot;/&gt;&lt;p style=&quot;margin:0 0 0 4px;line-height:1.6;&quot;&gt;# writeStreamHeader(): void&lt;/p&gt;" style="verticalAlign=top;align=left;overflow=fill;fontSize=14;fontFamily=Helvetica;html=1;rounded=0;shadow=0;comic=0;labelBackgroundColor=none;strokeWidth=1;" parent="1" vertex="1">
                    <mxGeometry x="304" y="1141" width="267" height="72" as="geometry"/>
                </mxCell>
                <mxCell id="node6" value="&lt;p style=&quot;margin:0px;margin-top:4px;text-align:center;&quot;&gt;&lt;b&gt;ProcessAccountData&lt;/b&gt;&lt;/p&gt;&lt;hr size=&quot;1&quot;/&gt;&lt;p style=&quot;margin:0 0 0 4px;line-height:1.6;&quot;&gt;- url: URL&lt;br/&gt;~ classLoader: ClassLoader&lt;br/&gt;- path: String&lt;/p&gt;&lt;hr size=&quot;1&quot;/&gt;&lt;p style=&quot;margin:0 0 0 4px;line-height:1.6;&quot;&gt;+ writeAccountFile(String, String): void&lt;br/&gt;+ readAccountFile(ConcurrentHashMap&amp;lt;String, User&amp;gt;): void&lt;/p&gt;" style="verticalAlign=top;align=left;overflow=fill;fontSize=14;fontFamily=Helvetica;html=1;rounded=0;shadow=0;comic=0;labelBackgroundColor=none;strokeWidth=1;" parent="1" vertex="1">
                    <mxGeometry x="277" y="1314" width="451" height="180" as="geometry"/>
                </mxCell>
                <mxCell id="node2" value="&lt;p style=&quot;margin:0px;margin-top:4px;text-align:center;&quot;&gt;&lt;b&gt;PushMessageService&lt;/b&gt;&lt;/p&gt;&lt;hr size=&quot;1&quot;/&gt;&lt;p style=&quot;margin:0 0 0 4px;line-height:1.6;&quot;&gt;- serverFrame: ServerFrame&lt;br/&gt;- sdf: SimpleDateFormat&lt;/p&gt;&lt;hr size=&quot;1&quot;/&gt;&lt;p style=&quot;margin:0 0 0 4px;line-height:1.6;&quot;&gt;+ pushMsg(String): void&lt;br/&gt;+ printToServerFrame(String): void&lt;/p&gt;" style="verticalAlign=top;align=left;overflow=fill;fontSize=14;fontFamily=Helvetica;html=1;rounded=0;shadow=0;comic=0;labelBackgroundColor=none;strokeWidth=1;" parent="1" vertex="1">
                    <mxGeometry x="433" y="898" width="285" height="154" as="geometry"/>
                </mxCell>
                <mxCell id="node5" value="&lt;p style=&quot;margin:0px;margin-top:4px;text-align:center;&quot;&gt;&lt;b&gt;ServerConnectThread&lt;/b&gt;&lt;/p&gt;&lt;hr size=&quot;1&quot;/&gt;&lt;p style=&quot;margin:0 0 0 4px;line-height:1.6;&quot;&gt;- serverFrame: ServerFrame&lt;br/&gt;- socket: Socket&lt;br/&gt;- userId: String&lt;/p&gt;&lt;hr size=&quot;1&quot;/&gt;&lt;p style=&quot;margin:0 0 0 4px;line-height:1.6;&quot;&gt;+ run(): void&lt;br/&gt;+ getSocket(): Socket&lt;br/&gt;+ printToServerFrame(String): void&lt;/p&gt;" style="verticalAlign=top;align=left;overflow=fill;fontSize=14;fontFamily=Helvetica;html=1;rounded=0;shadow=0;comic=0;labelBackgroundColor=none;strokeWidth=1;" parent="1" vertex="1">
                    <mxGeometry x="958" y="1083" width="285" height="208" as="geometry"/>
                </mxCell>
                <mxCell id="node3" value="&lt;p style=&quot;margin:0px;margin-top:4px;text-align:center;&quot;&gt;&lt;b&gt;ServerConnectThreadManage&lt;/b&gt;&lt;/p&gt;&lt;hr size=&quot;1&quot;/&gt;&lt;p style=&quot;margin:0 0 0 4px;line-height:1.6;&quot;&gt;- map: HashMap&amp;lt;String, HashMap&amp;lt;String, ServerConnectThread&amp;gt;&amp;gt;&lt;/p&gt;&lt;hr size=&quot;1&quot;/&gt;&lt;p style=&quot;margin:0 0 0 4px;line-height:1.6;&quot;&gt;+ getThread(String, String): ServerConnectThread&lt;br/&gt;+ getOnlineUsers(): String&lt;br/&gt;+ removeThread(String): void&lt;br/&gt;+ removeThread(String, String): void&lt;br/&gt;+ addThread(String, String, ServerConnectThread): void&lt;br/&gt;+ getMap(): HashMap&amp;lt;String, HashMap&amp;lt;String, ServerConnectThread&amp;gt;&amp;gt;&lt;/p&gt;" style="verticalAlign=top;align=left;overflow=fill;fontSize=14;fontFamily=Helvetica;html=1;rounded=0;shadow=0;comic=0;labelBackgroundColor=none;strokeWidth=1;" parent="1" vertex="1">
                    <mxGeometry x="1184" y="784" width="537" height="236" as="geometry"/>
                </mxCell>
                <mxCell id="node11" value="&lt;p style=&quot;margin:0px;margin-top:4px;text-align:center;&quot;&gt;&lt;b&gt;ServerFrame&lt;/b&gt;&lt;/p&gt;&lt;hr size=&quot;1&quot;/&gt;&lt;p style=&quot;margin:0 0 0 4px;line-height:1.6;&quot;&gt;- serialVersionUID: long&lt;br/&gt;- fontYouYuan: Font&lt;br/&gt;- startButton: JButton&lt;br/&gt;- btnColor: Color&lt;br/&gt;- pushButton: JButton&lt;br/&gt;- showcase: JTextArea&lt;br/&gt;- pushTxt: JTextField&lt;br/&gt;- server: BasicService&lt;br/&gt;- pushMessageService: PushMessageService&lt;/p&gt;&lt;hr size=&quot;1&quot;/&gt;&lt;p style=&quot;margin:0 0 0 4px;line-height:1.6;&quot;&gt;+ getShowcase(): JTextArea&lt;br/&gt;+ println(String): void&lt;br/&gt;+ main(String[]): void&lt;br/&gt;+ setShowcase(JTextArea): void&lt;br/&gt;+ setPushTxt(JTextField): void&lt;br/&gt;+ getPushTxt(): JTextField&lt;/p&gt;" style="verticalAlign=top;align=left;overflow=fill;fontSize=14;fontFamily=Helvetica;html=1;rounded=0;shadow=0;comic=0;labelBackgroundColor=none;strokeWidth=1;" parent="1" vertex="1">
                    <mxGeometry x="790" y="1352" width="355" height="460" as="geometry"/>
                </mxCell>
                <mxCell id="node1" value="&lt;p style=&quot;margin:0px;margin-top:4px;text-align:center;&quot;&gt;&lt;b&gt;StartServer&lt;/b&gt;&lt;/p&gt;&lt;hr size=&quot;1&quot;/&gt;&lt;p style=&quot;margin:0 0 0 4px;line-height:1.6;&quot;&gt;+ main(String[]): void&lt;/p&gt;" style="verticalAlign=top;align=left;overflow=fill;fontSize=14;fontFamily=Helvetica;html=1;rounded=0;shadow=0;comic=0;labelBackgroundColor=none;strokeWidth=1;" parent="1" vertex="1">
                    <mxGeometry x="828" y="955" width="189" height="72" as="geometry"/>
                </mxCell>
                <mxCell id="node9" value="&lt;p style=&quot;margin:0px;margin-top:4px;text-align:center;&quot;&gt;&lt;b&gt;User&lt;/b&gt;&lt;/p&gt;&lt;hr size=&quot;1&quot;/&gt;&lt;p style=&quot;margin:0 0 0 4px;line-height:1.6;&quot;&gt;- state: String&lt;br/&gt;+ serialVersionUID: long&lt;br/&gt;- password: String&lt;br/&gt;- registMessageType: String&lt;br/&gt;- userId: String&lt;/p&gt;&lt;hr size=&quot;1&quot;/&gt;&lt;p style=&quot;margin:0 0 0 4px;line-height:1.6;&quot;&gt;+ getState(): String&lt;br/&gt;+ setUserId(String): void&lt;br/&gt;+ getPassword(): String&lt;br/&gt;+ getRegistMessageType(): String&lt;br/&gt;+ setRegistMessageType(String): void&lt;br/&gt;+ setState(String): void&lt;br/&gt;+ getUserId(): String&lt;br/&gt;+ setPassword(String): void&lt;br/&gt;+ getSerialversionuid(): long&lt;/p&gt;" style="verticalAlign=top;align=left;overflow=fill;fontSize=14;fontFamily=Helvetica;html=1;rounded=0;shadow=0;comic=0;labelBackgroundColor=none;strokeWidth=1;" parent="1" vertex="1">
                    <mxGeometry x="1303" y="1127" width="303" height="432" as="geometry"/>
                </mxCell>
            </root>
        </mxGraphModel>
    </diagram>
</mxfile>